<svg width="18" height="18" viewBox="0 0 18 18" fill="none" xmlns="http://www.w3.org/2000/svg">
<circle cx="9" cy="9" r="9" fill="#66906C"/>
<path d="M12.0589 8.04762H9.95238V5.94114C9.95238 5.42362 9.51771 5 9 5C8.48229 5 8.04762 5.42362 8.04762 5.94114V8.04762H5.94114C5.42362 8.04762 5 8.48229 5 9C5 9.51771 5.42362 9.95238 5.94114 9.95238H8.04762V12.0589C8.04762 12.5764 8.48229 13 9 13C9.51771 13 9.95238 12.5764 9.95238 12.0589V9.95238H12.0589C12.5764 9.95238 13 9.51771 13 9C13 8.48229 12.5764 8.04762 12.0589 8.04762Z" fill="white"/>
</svg>
