<svg width="27" height="27" viewBox="0 0 27 27" fill="none" xmlns="http://www.w3.org/2000/svg">
<g clip-path="url(#clip0_72_2828)">
<path d="M20.0111 16.8379L16.5016 13.3284L20.0111 9.81893C20.8733 8.9567 20.8549 7.52675 19.9923 6.66422C19.1298 5.80168 17.6999 5.78327 16.8376 6.64549L13.3281 10.155L9.81862 6.64549C8.9564 5.78327 7.52645 5.80168 6.66391 6.66422C5.80137 7.52675 5.78296 8.9567 6.64519 9.81893L10.1547 13.3284L6.64519 16.8379C5.78296 17.7002 5.80137 19.1301 6.66391 19.9926C7.52645 20.8552 8.9564 20.8736 9.81862 20.0114L13.3281 16.5019L16.8376 20.0114C17.6998 20.8736 19.1298 20.8552 19.9923 19.9926C20.8549 19.1301 20.8733 17.7002 20.0111 16.8379Z" fill="white"/>
</g>
<defs>
<clipPath id="clip0_72_2828">
<rect width="18.8492" height="18.8492" fill="white" transform="translate(13.3281) rotate(45)"/>
</clipPath>
</defs>
</svg>
